<?xml version="1.0" standalone="no"?><!DOCTYPE svg PUBLIC "-//W3C//DTD SVG 1.1//EN" "http://www.w3.org/Graphics/SVG/1.1/DTD/svg11.dtd"><svg t="1711348845862" class="icon" viewBox="0 0 1024 1024" version="1.1" xmlns="http://www.w3.org/2000/svg" p-id="4238" xmlns:xlink="http://www.w3.org/1999/xlink" width="200" height="200"><path d="M835.779048 0a79.969524 79.969524 0 0 1 79.676952 73.045333l0.292571 6.924191-0.048761 633.319619 0.048761 0.585143a31.207619 31.207619 0 0 1-26.575238 30.866285l-4.632381 0.341334H226.255238l-7.070476 0.292571a90.697143 90.697143 0 0 0 0 180.809143L226.255238 926.47619h658.285714l4.632381 0.341334a31.207619 31.207619 0 0 1 0 61.732571l-4.632381 0.341334H226.255238l-8.679619-0.24381a153.112381 153.112381 0 0 1-144.188952-144.188952L73.142857 835.779048V177.493333A177.493333 177.493333 0 0 1 241.225143 0.24381L250.63619 0h585.142858z m0 62.415238h-585.142858a115.078095 115.078095 0 0 0-114.834285 107.178667l-0.24381 7.899428-0.048762 534.966857a152.33219 152.33219 0 0 1 79.481905-29.403428L226.255238 682.666667H853.333333V79.969524a17.554286 17.554286 0 0 0-13.994666-17.212953l-3.559619-0.341333z m-334.701715 438.662095c11.117714 0 20.772571 3.803429 29.159619 11.459048 8.289524 7.558095 12.288 16.676571 12.288 27.648a38.083048 38.083048 0 0 1-12.141714 28.330667 40.228571 40.228571 0 0 1-29.305905 11.946666 40.862476 40.862476 0 0 1-15.798857-3.120762 45.543619 45.543619 0 0 1-13.360762-8.338285 38.13181 38.13181 0 0 1-8.97219-12.336762 38.083048 38.083048 0 0 1 8.825905-43.641905 40.228571 40.228571 0 0 1 29.305904-11.946667z m6.436572-338.212571c16.237714 0 31.548952 2.340571 46.031238 7.070476 14.384762 4.632381 27.062857 11.556571 38.034286 20.675048 10.873905 9.020952 19.504762 20.187429 25.795047 33.54819 6.241524 13.312 9.411048 28.720762 9.411048 46.275048 0 11.995429-1.316571 22.430476-3.900953 31.256381a91.184762 91.184762 0 0 1-11.02019 24.380952c-4.87619 7.41181-10.776381 14.628571-17.749333 21.601524a437.101714 437.101714 0 0 1-15.408762 14.628571l-19.358476 17.164191a203.824762 203.824762 0 0 0-8.582096 8.387047 84.845714 84.845714 0 0 0-12.483047 16.237715c-2.145524 3.705905-3.900952 7.655619-5.168762 11.702857l-1.609143 6.339048-1.024 6.631619c-0.341333 2.925714-0.585143 6.144-0.731429 9.557333l-0.048762 11.605333-0.048761 4.778667H471.332571v-16.920381l0.195048-8.728381a118.491429 118.491429 0 0 1 1.755429-15.457524 85.820952 85.820952 0 0 1 17.066666-38.034286c3.169524-4.047238 6.826667-8.240762 11.117715-12.629333l6.826666-6.680381 26.331429-25.161143 7.314286-7.168c4.632381-4.973714 8.777143-10.337524 12.531809-16.091428 5.851429-9.069714 8.728381-19.992381 8.728381-32.719238 0-16.579048-5.266286-30.622476-15.750095-41.935238-10.630095-11.556571-25.648762-17.261714-44.617143-17.261715a62.854095 62.854095 0 0 0-57.539048 35.644953l-2.486857 5.90019-2.535619 7.996953-0.926476 4.047238-0.731429 4.096-0.243809 2.730666-60.952381-5.412571 0.731428-5.168762c2.633143-13.848381 6.826667-26.331429 12.678096-37.595429 7.314286-14.043429 16.725333-25.84381 28.281904-35.547428 11.556571-9.703619 24.81981-17.066667 39.789715-22.137905a151.161905 151.161905 0 0 1 48.615619-7.606857z" p-id="4239"></path></svg>